<svg id="Layer_1" data-name="Layer 1" xmlns="http://www.w3.org/2000/svg" xmlns:xlink="http://www.w3.org/1999/xlink" viewBox="0 0 512 512"><defs><pattern id="USGS_8_Sewage_Disposal" data-name="USGS 8 Sewage Disposal" width="72" height="74.8" patternTransform="translate(-144 483.88) scale(2.7 2.7)" patternUnits="userSpaceOnUse" viewBox="0 0 72 74.8"><rect width="72" height="74.8" fill="none"/><line y1="73.95" x2="72" y2="73.95" fill="none" stroke="#1f191a" stroke-linecap="square" stroke-width="0.3"/><line y1="72.25" x2="72" y2="72.25" fill="none" stroke="#1f191a" stroke-linecap="square" stroke-width="0.3"/><line y1="70.55" x2="72" y2="70.55" fill="none" stroke="#1f191a" stroke-linecap="square" stroke-width="0.3"/><line y1="68.85" x2="72" y2="68.85" fill="none" stroke="#1f191a" stroke-linecap="square" stroke-width="0.3"/><line y1="67.15" x2="72" y2="67.15" fill="none" stroke="#1f191a" stroke-linecap="square" stroke-width="0.3"/><line y1="65.45" x2="72" y2="65.45" fill="none" stroke="#1f191a" stroke-linecap="square" stroke-width="0.3"/><line y1="63.75" x2="72" y2="63.75" fill="none" stroke="#1f191a" stroke-linecap="square" stroke-width="0.3"/><line y1="62.05" x2="72" y2="62.05" fill="none" stroke="#1f191a" stroke-linecap="square" stroke-width="0.3"/><line y1="60.35" x2="72" y2="60.35" fill="none" stroke="#1f191a" stroke-linecap="square" stroke-width="0.3"/><line y1="58.65" x2="72" y2="58.65" fill="none" stroke="#1f191a" stroke-linecap="square" stroke-width="0.3"/><line y1="56.95" x2="72" y2="56.95" fill="none" stroke="#1f191a" stroke-linecap="square" stroke-width="0.3"/><line y1="55.25" x2="72" y2="55.25" fill="none" stroke="#1f191a" stroke-linecap="square" stroke-width="0.3"/><line y1="53.55" x2="72" y2="53.55" fill="none" stroke="#1f191a" stroke-linecap="square" stroke-width="0.3"/><line y1="51.85" x2="72" y2="51.85" fill="none" stroke="#1f191a" stroke-linecap="square" stroke-width="0.3"/><line y1="50.15" x2="72" y2="50.15" fill="none" stroke="#1f191a" stroke-linecap="square" stroke-width="0.3"/><line y1="48.45" x2="72" y2="48.45" fill="none" stroke="#1f191a" stroke-linecap="square" stroke-width="0.3"/><line y1="46.75" x2="72" y2="46.75" fill="none" stroke="#1f191a" stroke-linecap="square" stroke-width="0.3"/><line y1="45.05" x2="72" y2="45.05" fill="none" stroke="#1f191a" stroke-linecap="square" stroke-width="0.3"/><line y1="43.35" x2="72" y2="43.35" fill="none" stroke="#1f191a" stroke-linecap="square" stroke-width="0.3"/><line y1="41.65" x2="72" y2="41.65" fill="none" stroke="#1f191a" stroke-linecap="square" stroke-width="0.3"/><line y1="39.95" x2="72" y2="39.95" fill="none" stroke="#1f191a" stroke-linecap="square" stroke-width="0.3"/><line y1="38.25" x2="72" y2="38.25" fill="none" stroke="#1f191a" stroke-linecap="square" stroke-width="0.3"/><line y1="36.55" x2="72" y2="36.55" fill="none" stroke="#1f191a" stroke-linecap="square" stroke-width="0.3"/><line y1="34.85" x2="72" y2="34.85" fill="none" stroke="#1f191a" stroke-linecap="square" stroke-width="0.3"/><line y1="33.15" x2="72" y2="33.15" fill="none" stroke="#1f191a" stroke-linecap="square" stroke-width="0.3"/><line y1="31.45" x2="72" y2="31.45" fill="none" stroke="#1f191a" stroke-linecap="square" stroke-width="0.3"/><line y1="29.75" x2="72" y2="29.75" fill="none" stroke="#1f191a" stroke-linecap="square" stroke-width="0.3"/><line y1="28.05" x2="72" y2="28.05" fill="none" stroke="#1f191a" stroke-linecap="square" stroke-width="0.3"/><line y1="26.35" x2="72" y2="26.35" fill="none" stroke="#1f191a" stroke-linecap="square" stroke-width="0.3"/><line y1="24.65" x2="72" y2="24.65" fill="none" stroke="#1f191a" stroke-linecap="square" stroke-width="0.3"/><line y1="22.95" x2="72" y2="22.95" fill="none" stroke="#1f191a" stroke-linecap="square" stroke-width="0.3"/><line y1="21.25" x2="72" y2="21.25" fill="none" stroke="#1f191a" stroke-linecap="square" stroke-width="0.3"/><line y1="19.55" x2="72" y2="19.55" fill="none" stroke="#1f191a" stroke-linecap="square" stroke-width="0.3"/><line y1="17.85" x2="72" y2="17.85" fill="none" stroke="#1f191a" stroke-linecap="square" stroke-width="0.3"/><line y1="16.15" x2="72" y2="16.15" fill="none" stroke="#1f191a" stroke-linecap="square" stroke-width="0.3"/><line y1="14.45" x2="72" y2="14.45" fill="none" stroke="#1f191a" stroke-linecap="square" stroke-width="0.3"/><line y1="12.75" x2="72" y2="12.75" fill="none" stroke="#1f191a" stroke-linecap="square" stroke-width="0.3"/><line y1="11.05" x2="72" y2="11.05" fill="none" stroke="#1f191a" stroke-linecap="square" stroke-width="0.3"/><line y1="9.35" x2="72" y2="9.35" fill="none" stroke="#1f191a" stroke-linecap="square" stroke-width="0.3"/><line y1="7.65" x2="72" y2="7.65" fill="none" stroke="#1f191a" stroke-linecap="square" stroke-width="0.3"/><line y1="5.95" x2="72" y2="5.95" fill="none" stroke="#1f191a" stroke-linecap="square" stroke-width="0.3"/><line y1="4.25" x2="72" y2="4.25" fill="none" stroke="#1f191a" stroke-linecap="square" stroke-width="0.3"/><line y1="2.55" x2="72" y2="2.55" fill="none" stroke="#1f191a" stroke-linecap="square" stroke-width="0.3"/><line y1="0.85" x2="72" y2="0.85" fill="none" stroke="#1f191a" stroke-linecap="square" stroke-width="0.3"/><line x1="-21.5" y1="7.65" x2="-10.25" y2="7.65" fill="none" stroke="#1f191a" stroke-linecap="square" stroke-width="0.3"/></pattern></defs><title>bing-other</title><path d="M511.65,281.3c0,125.95-102,228.43-228.16,228.43-125.89,0-228.1-102.49-228.1-228.43,0-126.2,102.21-228.18,228.1-228.18A228,228,0,0,1,511.65,281.3Z" fill="url(#USGS_8_Sewage_Disposal)"/><path d="M494.72,264.35c0,125.95-102,228.43-228.16,228.43-125.89,0-228.1-102.49-228.1-228.43,0-126.2,102.21-228.18,228.1-228.18A228,228,0,0,1,494.72,264.35Z" fill="url(#USGS_8_Sewage_Disposal)"/><path d="M469.31,245.28c0,125.95-102,228.43-228.16,228.43C115.26,473.71,13,371.22,13,245.28,13,119.08,115.26,17.1,241.15,17.1A228,228,0,0,1,469.31,245.28Z" fill="#1f191a"/><path d="M463,234.68c0,125.95-102,228.43-228.16,228.43C108.9,463.12,6.7,360.63,6.7,234.68,6.7,108.49,108.9,6.5,234.8,6.5A228,228,0,0,1,463,234.68Z" fill="#333"/><path d="M469.31,245.28c0,125.95-102,228.43-228.16,228.43C115.26,473.71,13,371.22,13,245.28,13,119.08,115.26,17.1,241.15,17.1A228,228,0,0,1,469.31,245.28Z" fill="none" stroke="#1f191a" stroke-width="2.12"/><path d="M458.73,232.56c0,125.95-102,228.43-228.16,228.43C104.67,461,2.46,358.51,2.46,232.56c0-126.2,102.21-228.18,228.1-228.18A228,228,0,0,1,458.73,232.56Z" fill="#fff"/><path d="M458.73,232.56c0,125.95-102,228.43-228.16,228.43C104.67,461,2.46,358.51,2.46,232.56c0-126.2,102.21-228.18,228.1-228.18A228,228,0,0,1,458.73,232.56Z" fill="#fff"/><path d="M458.73,232.56c0,125.95-102,228.43-228.16,228.43C104.67,461,2.46,358.51,2.46,232.56c0-126.2,102.21-228.18,228.1-228.18A228,228,0,0,1,458.73,232.56Z" fill="none" stroke="#1f191a" stroke-width="4.24"/><path d="M125.25,199V138.91c0-11.29,8-20.9,19.4-23.43,12.64-2.43,26.25,7.18,27.41,21.32a18.77,18.77,0,0,1,.42,4.43c0,38.62-.11,77.47,0,116.31a42.46,42.46,0,0,0,11.38,29c7,8.55,16,13.51,26.79,15.62a56.74,56.74,0,0,0,7.59.64h25.09c11.81-.31,22.57-3.9,31.74-11.61,7.27-6.33,12.13-14.15,13.39-23.65,1.26-9,0-17.72-3-26.6a49.52,49.52,0,0,0-8.32-13.71c-3.48-3.91-7.48-6.33-13.18-6h-44.5c-13.28,0-24-10.23-24-23.32a23.4,23.4,0,0,1,19.39-23.65,22.75,22.75,0,0,1,5.28-.42h44.5a60.39,60.39,0,0,1,36.8,12.35c11.7,8.44,20.14,20.16,25.84,33.24a100.6,100.6,0,0,1,8.43,32.93,88.26,88.26,0,0,1-6.75,43.8,99.41,99.41,0,0,1-15.18,22.9,97.27,97.27,0,0,1-40.91,26.28,80.66,80.66,0,0,1-22.36,4.11c-11.07,1.17-22,.75-32.9.75a92,92,0,0,1-40.17-9.92A93.54,93.54,0,0,1,136,299.65,88.56,88.56,0,0,1,125.56,265c-.31-3.48-.53-7-.53-10.45C125.25,236,125.25,217.22,125.25,199Z" fill="#434040" fill-rule="evenodd"/></svg>